# Blender v2.83.3 OBJ File: 'crystal.blend'
# www.blender.org
mtllib crystal.mtl
o crystal
v 0.410159 1.201978 0.277878
v 0.494076 1.859412 0.344799
v 0.073709 1.859412 0.547237
v 0.073709 1.201978 0.439903
v 0.493255 1.201980 -0.086190
v 0.597898 1.859412 -0.110075
v 0.260425 1.201980 -0.378151
v 0.306995 1.859413 -0.474855
v -0.113007 1.201980 -0.378151
v -0.159576 1.859413 -0.474855
v -0.345837 1.201980 -0.086191
v -0.450479 1.859412 -0.110075
v -0.262740 1.201978 0.277878
v -0.346658 1.859412 0.344799
v 0.499681 2.539515 0.349251
v 0.073752 2.448835 0.583835
v 0.648004 2.539515 -0.111642
v 0.310124 2.403493 -0.518728
v -0.162621 2.403493 -0.481248
v -0.523470 2.539515 -0.111643
v -0.352177 2.448835 0.349251
v 0.073709 0.839257 0.009568
v 0.441674 2.732211 -0.067840
v 0.073709 2.879567 0.009569
v 0.346756 2.732211 0.227102
v 0.225453 2.732211 -0.328349
v -0.077073 2.732211 -0.304366
v -0.307995 2.732211 -0.067840
v -0.198378 2.732211 0.227102
v 0.074189 2.732211 0.377221
vt 1.550796 -1.110487
vt 1.550681 -0.691361
vt 0.987823 -0.691601
vt 0.988152 -1.110867
vt 2.113008 -1.110547
vt 2.113193 -0.691398
vt 2.675914 -1.111002
vt 2.676261 -0.691687
vt 3.240128 -1.111512
vt 3.240376 -0.692010
vt 3.805279 -1.111691
vt 3.805240 -0.692124
vt 4.370282 -1.111403
vt 4.369986 -0.691941
vt 0.423972 -0.691941
vt 0.424269 -1.111403
vt 1.550692 -0.096782
vt 0.987786 -0.165911
vt 2.102978 -0.117082
vt 2.693955 -0.198479
vt 3.240351 -0.182965
vt 3.820417 -0.126243
vt 4.370014 -0.151645
vt 0.424001 -0.151645
vt 0.733702 -1.358457
vt 5.707979 -1.369897
vt 3.513156 -1.358932
vt 2.931618 -1.358579
vt 2.371758 -1.358101
vt 1.828977 -1.357853
vt 1.288297 -1.358007
vt 2.102194 0.089539
vt 1.833915 0.354796
vt 1.551232 0.106541
vt 2.692416 0.093619
vt 2.368520 0.354950
vt 3.239184 0.108358
vt 2.925301 0.355947
vt 3.820616 0.082576
vt 3.537405 0.356272
vt 4.371409 0.108166
vt 5.707979 0.369640
vt 0.989253 0.095181
vt 0.748571 0.355910
vt 0.425396 0.108166
vt 1.285167 0.355255
vn 0.4293 -0.1455 0.8914
vn 0.9645 -0.1455 0.2202
vn 0.7735 -0.1455 -0.6169
vn 0.0000 -0.1455 -0.9894
vn -0.7735 -0.1455 -0.6169
vn -0.9645 -0.1455 0.2202
vn -0.4293 -0.1455 0.8914
vn 0.4612 -0.0307 0.8868
vn 0.9633 -0.0400 0.2652
vn 0.7789 -0.0571 -0.6245
vn -0.0398 -0.0461 -0.9981
vn -0.7516 -0.0510 -0.6576
vn -0.9576 -0.0599 0.2818
vn -0.4586 -0.0331 0.8880
vn -0.2964 -0.7303 0.6155
vn -0.6660 -0.7303 0.1520
vn -0.5341 -0.7303 -0.4260
vn 0.0000 -0.7303 -0.6832
vn 0.5341 -0.7303 -0.4260
vn 0.6660 -0.7303 0.1520
vn 0.2964 -0.7303 0.6155
vn 0.3915 0.9115 0.1260
vn 0.6903 0.6886 0.2221
vn 0.3117 0.9143 -0.2587
vn 0.5653 0.5793 -0.5872
vn -0.0326 0.9107 -0.4118
vn -0.0690 0.4866 -0.8709
vn -0.2938 0.9118 -0.2869
vn -0.5205 0.5697 -0.6360
vn -0.3814 0.9135 0.1417
vn -0.7155 0.6108 0.3392
vn -0.2008 0.9092 0.3647
vn -0.4064 0.5387 0.7380
vn 0.2006 0.9094 0.3642
vn 0.3221 0.6056 0.7276
usemtl (null).001
s 1
f 1/1/1 2/2/1 3/3/1 4/4/1
f 5/5/2 6/6/2 2/2/2 1/1/2
f 7/7/3 8/8/3 6/6/3 5/5/3
f 9/9/4 10/10/4 8/8/4 7/7/4
f 11/11/5 12/12/5 10/10/5 9/9/5
f 13/13/6 14/14/6 12/12/6 11/11/6
f 4/4/7 3/3/7 14/15/7 13/16/7
f 2/2/8 15/17/8 16/18/8 3/3/8
f 6/6/9 17/19/9 15/17/9 2/2/9
f 8/8/10 18/20/10 17/19/10 6/6/10
f 10/10/11 19/21/11 18/20/11 8/8/11
f 12/12/12 20/22/12 19/21/12 10/10/12
f 14/14/13 21/23/13 20/22/13 12/12/13
f 3/3/14 16/18/14 21/24/14 14/15/14
f 4/4/15 13/16/15 22/25/15
f 13/13/16 11/11/16 22/26/16
f 11/11/17 9/9/17 22/27/17
f 9/9/18 7/7/18 22/28/18
f 7/7/19 5/5/19 22/29/19
f 5/5/20 1/1/20 22/30/20
f 1/1/21 4/4/21 22/31/21
f 23/32/22 24/33/22 25/34/22
f 25/34/23 15/17/23 17/19/23 23/32/23
f 26/35/24 24/36/24 23/32/24
f 23/32/25 17/19/25 18/20/25 26/35/25
f 27/37/26 24/38/26 26/35/26
f 26/35/27 18/20/27 19/21/27 27/37/27
f 28/39/28 24/40/28 27/37/28
f 27/37/29 19/21/29 20/22/29 28/39/29
f 29/41/30 24/42/30 28/39/30
f 28/39/31 20/22/31 21/23/31 29/41/31
f 30/43/32 24/44/32 29/45/32
f 29/45/33 21/24/33 16/18/33 30/43/33
f 25/34/34 24/46/34 30/43/34
f 30/43/35 16/18/35 15/17/35 25/34/35
