# Blender v2.83.3 OBJ File: 'plane.blend'
# www.blender.org
mtllib plane.mtl
o Plane
v -1.000000 0.000000 1.000000
v 1.000000 0.000000 1.000000
v -1.000000 0.000000 -1.000000
v 1.000000 0.000000 -1.000000
v -1.000000 0.000000 -2.999527
v 1.000000 0.000000 -2.999527
v -1.000000 0.000000 -5.034268
v 1.000000 0.000000 -5.034268
v -1.000000 0.000000 -7.033795
v 1.000000 0.000000 -7.033795
v -1.000000 0.000000 -8.982121
v 1.000000 0.000000 -8.982121
v -1.000000 0.000000 -10.981647
v 1.000000 0.000000 -10.981647
v -1.000000 0.000000 -13.016388
v 1.000000 0.000000 -13.016388
v -1.000000 0.000000 -15.015915
v 1.000000 0.000000 -15.015915
v -1.000000 0.000000 -17.033329
v 1.000000 0.000000 -17.033329
v -1.000000 0.000000 -19.032856
v 1.000000 0.000000 -19.032856
v -1.000000 0.000000 -21.067596
v 1.000000 0.000000 -21.067596
v -1.000000 0.000000 -23.067123
v 1.000000 0.000000 -23.067123
v 3.048192 0.000000 1.000000
v 3.048192 0.000000 -1.000000
v 3.048192 0.000000 -2.999527
v 3.048192 0.000000 -5.034268
v 3.048192 0.000000 -7.033795
v 3.048192 0.000000 -8.982121
v 3.048192 0.000000 -10.981647
v 3.048192 0.000000 -13.016388
v 3.048192 0.000000 -15.015915
v 3.048192 0.000000 -17.033329
v 3.048192 0.000000 -19.032856
v 3.048192 0.000000 -21.067596
v 3.048192 0.000000 -23.067123
v -2.982057 0.000000 4.924457
v 3.048192 0.000000 3.015020
v 4.967516 0.000000 -8.982121
v 4.967516 0.000000 -7.033795
v 3.032141 0.000000 4.940277
v 1.000000 0.000000 4.940277
v 5.075276 0.000000 4.933283
v 5.059226 0.000000 4.940277
v 3.048192 0.000000 4.933283
v 5.059226 0.000000 3.022014
v 5.075276 0.000000 3.015020
v 5.075276 0.000000 -5.034268
v 5.075276 0.000000 -2.999527
v 5.075276 0.000000 -1.000000
v 5.075276 0.000000 1.000000
v -1.005608 0.000000 4.924457
v -5.022076 0.000000 4.899798
v -5.022076 0.000000 -2.999527
v -5.022076 0.000000 -5.034268
v -5.022076 0.000000 -7.033795
v -5.022076 0.000000 -8.982121
v -5.022076 0.000000 -10.981647
v -5.022076 0.000000 -13.016388
v -5.022076 0.000000 -15.015915
v -5.022076 0.000000 -17.017185
v -5.022076 0.000000 -19.032856
v -5.022076 0.000000 -21.067596
v -5.022076 0.000000 -23.067123
v -2.982057 0.000000 -0.024658
v -2.982057 0.000000 -2.999527
v -2.982057 0.000000 -5.034268
v -2.982057 0.000000 -7.033795
v -2.982057 0.000000 -8.982121
v -2.982057 0.000000 -10.981647
v -2.982057 0.000000 -13.016388
v -2.982057 0.000000 -15.015915
v -2.982057 0.000000 -17.033329
v -2.982057 0.000000 -19.032856
v -2.982057 0.000000 -21.067596
v -2.982057 0.000000 -23.067123
v -13.083507 0.000000 -19.032856
v -11.083507 0.000000 -19.032856
v -13.083507 0.000000 -21.067596
v -11.083507 0.000000 -21.067596
v -13.083507 0.000000 -23.067123
v -11.083507 0.000000 -23.067123
v -8.015306 0.000000 -19.032856
v -8.015306 0.000000 -21.067596
v -8.015306 0.000000 -23.067123
v -17.105583 0.000000 -19.032856
v -17.105583 0.000000 -21.067596
v -17.105583 0.000000 -23.067123
v -15.065563 0.000000 -19.032856
v -15.065563 0.000000 -21.067596
v -15.065563 0.000000 -23.067123
v -25.101715 0.000000 -19.032856
v -23.101715 0.000000 -19.032856
v -25.101715 0.000000 -21.067596
v -23.101715 0.000000 -21.067596
v -25.101715 0.000000 -23.067123
v -23.101715 0.000000 -23.067123
v -20.033516 0.000000 -19.032856
v -20.033516 0.000000 -21.067596
v -20.033516 0.000000 -23.067123
v -29.123793 0.000000 -19.032856
v -29.123793 0.000000 -21.067596
v -29.123793 0.000000 -23.067123
v -27.083773 0.000000 -19.032856
v -27.083773 0.000000 -21.067596
v -27.083773 0.000000 -23.067123
v -13.083507 0.000000 -17.001041
v -11.083507 0.000000 -17.001041
v -8.015306 0.000000 -17.001041
v -17.105583 0.000000 -17.001041
v -15.065563 0.000000 -17.001041
v -25.101715 0.000000 -17.001041
v -23.101715 0.000000 -17.001041
v -20.033516 0.000000 -17.001041
v -29.123793 0.000000 -17.001041
v -27.083773 0.000000 -17.001041
v -5.022076 0.000000 -0.049317
v -2.982057 0.000000 3.006194
v -5.022076 0.000000 2.981536
v -1.005608 0.000000 3.006194
v 1.000000 0.000000 3.022014
v 3.032141 0.000000 3.022014
v 4.967516 0.000000 -10.981647
v 4.967516 0.000000 -13.016388
v 4.967516 0.000000 -15.015915
v 4.967516 0.000000 -17.033329
v 4.967516 0.000000 -19.032856
v 4.967516 0.000000 -21.067596
v 4.967516 0.000000 -23.067123
vt 0.000000 0.000000
vt 1.000000 0.000000
vt 1.000000 1.000000
vt 0.000000 1.000000
vt 0.000000 0.000000
vt 0.000000 0.000000
vt 0.000000 0.000000
vt 0.000000 0.000000
vt 0.000000 0.000000
vt 0.000000 0.000000
vt 0.000000 0.000000
vt 0.000000 0.000000
vt 0.000000 0.000000
vt 0.000000 0.000000
vt 0.000000 0.000000
vt 0.000000 0.000000
vt 0.000000 0.000000
vt 0.000000 0.000000
vt 0.000000 0.000000
vt 0.000000 0.000000
vt 0.000000 0.000000
vt 0.000000 0.000000
vt 0.000000 0.000000
vt 0.000000 0.000000
vt 0.000000 0.000000
vt 0.000000 0.000000
vt 0.000000 0.000000
vt 0.000000 0.000000
vt 0.000000 0.000000
vt 0.000000 0.000000
vt 0.000000 0.000000
vt 0.000000 0.000000
vt 0.000000 0.000000
vt 0.000000 0.000000
vt 0.000000 0.000000
vt 0.000000 0.000000
vt 0.000000 0.000000
vt 0.000000 0.000000
vt 0.000000 0.000000
vt 0.000000 0.000000
vt 0.000000 0.000000
vt 0.000000 0.000000
vt 0.000000 0.000000
vt 0.000000 0.000000
vt 0.000000 0.000000
vt 0.000000 0.000000
vt 0.000000 0.000000
vt 0.000000 0.000000
vt 0.000000 0.000000
vt 0.000000 0.000000
vt 0.000000 0.000000
vt 0.000000 0.000000
vt 0.000000 0.000000
vt 0.000000 0.000000
vt 0.000000 0.000000
vt 0.000000 0.000000
vt 0.000000 0.000000
vt 0.000000 0.000000
vt 0.000000 0.000000
vt 0.000000 0.000000
vt 0.000000 0.000000
vt 0.000000 0.000000
vt 0.000000 0.000000
vt 0.000000 0.000000
vt 0.000000 0.000000
vt 0.000000 0.000000
vt 0.000000 0.000000
vt 0.000000 0.000000
vt 0.000000 0.000000
vt 0.000000 0.000000
vt 0.000000 0.000000
vt 0.000000 0.000000
vt 0.000000 0.000000
vt 0.000000 0.000000
vt 0.000000 0.000000
vt 0.000000 0.000000
vt 0.000000 0.000000
vt 0.000000 0.000000
vt 0.000000 0.000000
vt 0.000000 0.000000
vt 0.000000 0.000000
vt 0.000000 0.000000
vt 0.000000 0.000000
vt 0.000000 0.000000
vt 0.000000 0.000000
vt 0.000000 0.000000
vt 0.000000 0.000000
vt 0.000000 0.000000
vt 0.000000 0.000000
vt 0.000000 0.000000
vt 0.000000 0.000000
vt 0.000000 0.000000
vt 0.000000 0.000000
vt 0.000000 0.000000
vt 0.000000 0.000000
vt 0.000000 0.000000
vt 0.000000 0.000000
vt 0.000000 0.000000
vt 0.000000 0.000000
vt 0.000000 0.000000
vt 0.000000 0.000000
vt 0.000000 0.000000
vt 0.000000 0.000000
vt 0.000000 0.000000
vt 0.000000 0.000000
vt 0.000000 0.000000
vt 0.000000 0.000000
vt 0.000000 0.000000
vt 0.000000 0.000000
vt 0.000000 0.000000
vt 0.000000 0.000000
vt 0.000000 0.000000
vt 0.000000 0.000000
vt 0.000000 0.000000
vt 0.000000 0.000000
vt 0.000000 0.000000
vt 0.000000 0.000000
vt 0.000000 0.000000
vt 0.000000 0.000000
vt 0.000000 0.000000
vt 0.000000 0.000000
vt 0.000000 0.000000
vt 0.000000 0.000000
vt 0.000000 0.000000
vt 0.000000 0.000000
vt 0.000000 0.000000
vt 0.000000 0.000000
vt 0.000000 0.000000
vt 0.000000 0.000000
vt 0.000000 0.000000
vt 0.000000 0.000000
vt 0.000000 0.000000
vn 0.0000 1.0000 0.0000
usemtl None
s off
f 1/1/1 2/2/1 4/3/1 3/4/1
f 6/5/1 5/6/1 3/4/1 4/3/1
f 6/5/1 8/7/1 7/8/1 5/6/1
f 8/7/1 10/9/1 9/10/1 7/8/1
f 10/9/1 12/11/1 11/12/1 9/10/1
f 12/11/1 14/13/1 13/14/1 11/12/1
f 14/13/1 16/15/1 15/16/1 13/14/1
f 16/15/1 18/17/1 17/18/1 15/16/1
f 18/17/1 20/19/1 19/20/1 17/18/1
f 20/19/1 22/21/1 21/22/1 19/20/1
f 22/21/1 24/23/1 23/24/1 21/22/1
f 24/23/1 26/25/1 25/26/1 23/24/1
f 46/27/1 50/28/1 49/29/1 41/30/1 125/31/1 44/32/1 48/33/1 47/34/1
f 33/35/1 126/36/1 127/37/1 34/38/1
f 34/38/1 127/37/1 128/39/1 35/40/1
f 32/41/1 42/42/1 126/36/1 33/35/1
f 31/43/1 43/44/1 42/42/1 32/41/1
f 30/45/1 51/46/1 43/44/1 31/43/1
f 45/47/1 44/32/1 48/33/1 41/30/1 125/31/1 124/48/1
f 124/48/1 123/49/1 55/50/1 45/47/1
f 40/51/1 55/50/1 123/49/1 121/52/1
f 122/53/1 56/54/1 40/51/1 121/52/1
f 54/55/1 27/56/1 125/31/1 41/30/1 49/29/1 50/28/1
f 27/56/1 54/55/1 53/57/1 28/58/1
f 28/58/1 53/57/1 52/59/1 29/60/1
f 52/59/1 51/46/1 30/45/1 29/60/1
f 2/2/1 27/56/1 28/58/1 4/3/1
f 4/3/1 28/58/1 29/60/1 6/5/1
f 6/5/1 29/60/1 30/45/1 8/7/1
f 8/7/1 30/45/1 31/43/1 10/9/1
f 10/9/1 31/43/1 32/41/1 12/11/1
f 12/11/1 32/41/1 33/35/1 14/13/1
f 14/13/1 33/35/1 34/38/1 16/15/1
f 16/15/1 34/38/1 35/40/1 18/17/1
f 18/17/1 35/40/1 36/61/1 20/19/1
f 20/19/1 36/61/1 37/62/1 22/21/1
f 22/21/1 37/62/1 38/63/1 24/23/1
f 24/23/1 38/63/1 39/64/1 26/25/1
f 1/1/1 3/4/1 68/65/1
f 3/4/1 5/6/1 69/66/1 68/65/1
f 57/67/1 69/66/1 70/68/1 58/69/1
f 5/6/1 7/8/1 70/68/1 69/66/1
f 58/69/1 70/68/1 71/70/1 59/71/1
f 7/8/1 9/10/1 71/70/1 70/68/1
f 9/10/1 11/12/1 72/72/1 71/70/1
f 59/71/1 71/70/1 72/72/1 60/73/1
f 60/73/1 72/72/1 73/74/1 61/75/1
f 11/12/1 13/14/1 73/74/1 72/72/1
f 13/14/1 15/16/1 74/76/1 73/74/1
f 61/75/1 73/74/1 74/76/1 62/77/1
f 15/16/1 17/18/1 75/78/1 74/76/1
f 62/77/1 74/76/1 75/78/1 63/79/1
f 63/79/1 75/78/1 76/80/1 64/81/1
f 17/18/1 19/20/1 76/80/1 75/78/1
f 19/20/1 21/22/1 77/82/1 76/80/1
f 64/81/1 76/80/1 77/82/1 65/83/1
f 21/22/1 23/24/1 78/84/1 77/82/1
f 65/83/1 77/82/1 78/84/1 66/85/1
f 79/86/1 78/84/1 23/24/1 25/26/1
f 66/85/1 78/84/1 79/86/1 67/87/1
f 81/88/1 83/89/1 82/90/1 80/91/1
f 83/89/1 85/92/1 84/93/1 82/90/1
f 81/88/1 86/94/1 87/95/1 83/89/1
f 83/89/1 87/95/1 88/96/1 85/92/1
f 80/91/1 82/90/1 93/97/1 92/98/1
f 89/99/1 92/98/1 93/97/1 90/100/1
f 94/101/1 93/97/1 82/90/1 84/93/1
f 90/100/1 93/97/1 94/101/1 91/102/1
f 96/103/1 98/104/1 97/105/1 95/106/1
f 98/104/1 100/107/1 99/108/1 97/105/1
f 96/103/1 101/109/1 102/110/1 98/104/1
f 98/104/1 102/110/1 103/111/1 100/107/1
f 95/106/1 97/105/1 108/112/1 107/113/1
f 104/114/1 107/113/1 108/112/1 105/115/1
f 109/116/1 108/112/1 97/105/1 99/108/1
f 105/115/1 108/112/1 109/116/1 106/117/1
f 66/85/1 87/95/1 86/94/1 65/83/1
f 67/87/1 88/96/1 87/95/1 66/85/1
f 90/100/1 102/110/1 101/109/1 89/99/1
f 91/102/1 103/111/1 102/110/1 90/100/1
f 104/114/1 118/118/1 119/119/1 107/113/1
f 107/113/1 119/119/1 115/120/1 95/106/1
f 95/106/1 115/120/1 116/121/1 96/103/1
f 96/103/1 116/121/1 117/122/1 101/109/1
f 101/109/1 117/122/1 113/123/1 89/99/1
f 89/99/1 113/123/1 114/124/1 92/98/1
f 92/98/1 114/124/1 110/125/1 80/91/1
f 80/91/1 110/125/1 111/126/1 81/88/1
f 81/88/1 111/126/1 112/127/1 86/94/1
f 64/81/1 65/83/1 86/94/1 112/127/1
f 68/65/1 69/66/1 57/67/1 120/128/1
f 120/128/1 122/53/1 121/52/1 68/65/1
f 121/52/1 123/49/1 1/1/1 68/65/1
f 27/56/1 2/2/1 124/48/1 125/31/1
f 2/2/1 1/1/1 123/49/1 124/48/1
f 35/40/1 128/39/1 129/129/1 36/61/1
f 36/61/1 129/129/1 130/130/1 37/62/1
f 37/62/1 130/130/1 131/131/1 38/63/1
f 131/131/1 132/132/1 39/64/1 38/63/1
l 27 41
l 54 49
